<svg width="537" height="75" viewBox="0 0 537 75" fill="none" xmlns="http://www.w3.org/2000/svg">
<path d="M15.7852 2.04102H42.4941C59.1445 2.04102 68.4707 10.8301 68.4707 23.9648C68.4707 41.9336 55.873 53.2617 35.6582 53.2617H25.6484L21.5469 72.5H0.892578L15.7852 2.04102ZM33.168 17.666L28.8223 37.9297H35.8047C43.0312 37.9297 47.7188 32.7051 47.7188 25.8203C47.7188 20.2539 44.4961 17.666 38.5879 17.666H33.168ZM107.191 74.4531C86.7812 74.4531 74.8672 61.2207 74.8672 43.8379C74.8672 17.7148 91.957 0.0878906 113.881 0.0878906C134.828 0.0878906 146.205 13.3691 146.205 30.7031C146.205 56.9238 129.066 74.4531 107.191 74.4531ZM113.393 17.5195C103.92 17.5195 95.8633 28.6523 95.8633 42.5195C95.8633 51.4551 100.502 57.168 107.631 57.168C117.104 57.168 125.209 46.084 125.209 32.1191C125.209 23.1348 120.521 17.5195 113.393 17.5195ZM199.574 33.1934L181.068 72.5H161.928L158.705 2.04102H180.189L178.92 45.498H179.896L199.037 2.04102H215.053L216.225 45.498H217.201L234.193 2.04102H255.482L222.377 72.5H202.602L200.551 33.1934H199.574ZM305.922 56.0938L302.455 72.5H252.748L267.738 2.04102H317.396L313.881 18.4473H284.926L282.533 29.873H309.682L306.508 44.7168H279.359L276.918 56.0938H305.922ZM317.592 72.5L332.582 2.04102H363.979C377.309 2.04102 387.074 11.0254 387.074 23.0859C387.074 32.998 381.117 42.7637 371.107 46.9141L380.385 72.5H358.168L350.551 48.8672H343.324L338.295 72.5H317.592ZM350.062 17.3242L346.303 34.707H355.043C361.977 34.707 366.322 30.5566 366.322 24.7949C366.322 19.8145 363.197 17.3242 357.484 17.3242H350.062ZM426.82 74.4531C408.217 74.4531 396.156 64.7363 396.156 50.625C396.156 48.7695 396.352 46.6699 396.791 44.6191L405.873 2.04102H426.625L417.592 44.4238C417.299 45.791 417.152 47.0605 417.152 48.1836C417.152 53.7988 421.596 57.0215 427.064 57.0215C433.07 57.0215 436.879 53.457 438.344 46.5723L447.719 2.04102H468.471L458.119 51.1621C455.043 65.7617 442.934 74.4531 426.82 74.4531ZM484.047 2.04102H510.756C527.406 2.04102 536.732 10.8301 536.732 23.9648C536.732 41.9336 524.135 53.2617 503.92 53.2617H493.91L489.809 72.5H469.154L484.047 2.04102ZM501.43 17.666L497.084 37.9297H504.066C511.293 37.9297 515.98 32.7051 515.98 25.8203C515.98 20.2539 512.758 17.666 506.85 17.666H501.43Z" fill="white"/>
</svg>
