<svg width="700" height="701" viewBox="0 0 700 701" fill="none" xmlns="http://www.w3.org/2000/svg">
    <g filter="url(#filter0_d_1876_3799)">
        <circle cx="350" cy="350.5" r="292.5" stroke="url(#paint0_radial_1876_3799)" stroke-width="15"
                shape-rendering="crispEdges"/>
    </g>
    <circle cx="350" cy="350" r="272.5" stroke="url(#paint1_radial_1876_3799)" stroke-width="5"/>
    <path fill-rule="evenodd" clip-rule="evenodd"
          d="M502.999 294.181C498.384 298.784 493.773 303.393 489.2 308.037C484.603 312.658 480.082 317.343 475.523 321.997L461.949 336.052L448.478 350.193L435.097 364.41C430.622 369.139 426.228 373.937 421.791 378.696L415.152 385.849L408.555 393.04L395.371 407.434L382.281 421.906L375.74 429.148L369.247 436.422L356.251 450.981L343.348 465.614C339.313 470.208 335.255 474.783 331.237 479.395L335.646 455.819L341.339 424.201L344.083 408.369C344.988 403.091 345.932 397.82 346.806 392.534L348.086 384.783L341.24 382.346L320.607 375.004L310.271 371.386L299.929 367.782C293.042 365.361 286.114 363.047 279.209 360.674C275.755 359.49 272.298 358.316 268.832 357.166L265.581 356.08C268.075 352.728 270.563 349.37 273.061 346.021L279.178 337.702C281.209 334.924 283.26 332.16 285.271 329.365L291.329 320.997L297.34 312.59L303.301 304.141C305.278 301.316 307.242 298.481 309.188 295.63C306.737 298.057 304.303 300.499 301.882 302.95L294.651 310.333L287.468 317.757L280.333 325.22C277.947 327.702 275.598 330.215 273.233 332.713L266.156 340.226C261.474 345.265 256.752 350.27 252.104 355.336L247 360.9L254.39 364.215L264.385 368.697C267.714 370.2 271.053 371.677 274.395 373.145C281.08 376.075 287.743 379.065 294.447 381.948L304.492 386.298L314.541 390.636L327.51 396.153C326.878 399 326.251 401.849 325.613 404.696L322.131 420.38L315.372 451.791L308.826 483.24L302.482 514.731L294.469 554.5L321.208 523.918C325.489 519.023 329.696 514.062 333.935 509.129L346.632 494.316C350.865 489.374 355.039 484.389 359.246 479.428L371.834 464.521L384.333 449.534L390.587 442.043L396.789 434.514L409.194 419.442L421.504 404.295L427.655 396.715L433.759 389.097C437.82 384.009 441.924 378.96 445.948 373.84L458.057 358.516L470.081 343.115L482.002 327.628C485.941 322.435 489.913 317.272 493.815 312.047C497.74 306.844 501.628 301.606 505.511 296.361C509.366 291.097 513.23 285.839 517 280.5C512.272 285.008 507.642 289.598 502.999 294.181Z"
          fill="url(#paint2_radial_1876_3799)"/>
    <path fill-rule="evenodd" clip-rule="evenodd"
          d="M437.505 336.495L427.506 331.996C424.181 330.487 420.842 329.01 417.498 327.535L407.481 323.102C404.142 321.617 400.793 320.162 397.445 318.71L387.4 314.347L382.379 312.165L377.345 310.009L364.385 304.482L366.263 296.064C367.412 290.871 368.598 285.684 369.714 280.484L373.076 264.887C374.188 259.686 375.346 254.494 376.416 249.285L379.671 233.666C380.749 228.458 381.866 223.258 382.912 218.044L389.212 186.764L397.319 146.5L370.559 177.614L346.205 205.933L334.121 220.173C330.097 224.924 326.048 229.653 322.066 234.44L310.077 248.763C306.067 253.526 302.117 258.341 298.15 263.141L286.266 277.555L274.465 292.043C270.518 296.86 266.634 301.732 262.728 306.585C258.826 311.443 254.912 316.288 251.053 321.183C247.189 326.072 243.295 330.936 239.454 335.845L227.939 350.581L216.518 365.399C212.741 370.365 208.94 375.309 205.202 380.308C201.44 385.286 197.719 390.301 194.004 395.319C190.31 400.357 186.611 405.39 183 410.5C187.542 406.201 191.996 401.824 196.455 397.452C200.893 393.062 205.325 388.667 209.716 384.235C214.131 379.824 218.483 375.36 222.859 370.916L235.898 357.505L248.842 344.012C253.154 339.512 257.413 334.966 261.701 330.446C265.995 325.93 270.234 321.367 274.486 316.814C278.732 312.258 283.002 307.72 287.208 303.128L299.866 289.387L312.441 275.573C316.627 270.964 320.83 266.369 324.973 261.722L337.443 247.817C341.614 243.194 345.717 238.513 349.848 233.855L360.561 221.745C360.07 224.356 359.589 226.968 359.094 229.579L356.162 245.261C355.167 250.485 354.261 255.728 353.308 260.959L350.478 276.664C349.53 281.897 348.652 287.145 347.736 292.384L345.015 308.109L343.671 315.871L350.604 318.331L371.255 325.66L376.42 327.484L381.595 329.282L391.948 332.878C395.399 334.078 398.846 335.278 402.311 336.445L412.688 339.972C416.148 341.15 419.604 342.326 423.074 343.47L426.236 344.521C423.859 347.589 421.491 350.661 419.109 353.726L413.076 361.614C411.067 364.249 409.045 366.868 407.06 369.521L401.078 377.458L395.147 385.436L389.258 393.455C387.306 396.136 385.368 398.83 383.444 401.537C385.858 399.26 388.259 396.968 390.645 394.664L397.767 387.727L404.847 380.749L411.875 373.729C414.229 371.396 416.541 369.031 418.876 366.68L425.848 359.612C430.462 354.869 435.114 350.159 439.699 345.388L445 339.871L437.505 336.495Z"
          fill="url(#paint3_radial_1876_3799)"/>
    <defs>
        <filter id="filter0_d_1876_3799" x="0" y="0.5" width="700" height="700" filterUnits="userSpaceOnUse"
                color-interpolation-filters="sRGB">
            <feFlood flood-opacity="0" result="BackgroundImageFix"/>
            <feColorMatrix in="SourceAlpha" type="matrix" values="0 0 0 0 0 0 0 0 0 0 0 0 0 0 0 0 0 0 127 0"
                           result="hardAlpha"/>
            <feOffset/>
            <feGaussianBlur stdDeviation="25"/>
            <feComposite in2="hardAlpha" operator="out"/>
            <feColorMatrix type="matrix" values="0 0 0 0 0.0241667 0 0 0 0 0.966667 0 0 0 0 0.457717 0 0 0 1 0"/>
            <feBlend mode="normal" in2="BackgroundImageFix" result="effect1_dropShadow_1876_3799"/>
            <feBlend mode="normal" in="SourceGraphic" in2="effect1_dropShadow_1876_3799" result="shape"/>
        </filter>
        <radialGradient id="paint0_radial_1876_3799" cx="0" cy="0" r="1" gradientUnits="userSpaceOnUse"
                        gradientTransform="translate(532.603 50.7553) rotate(128.915) scale(762.63 763.543)">
            <stop stop-color="#06F775"/>
            <stop offset="1" stop-color="#009947"/>
        </radialGradient>
        <radialGradient id="paint1_radial_1876_3799" cx="0" cy="0" r="1" gradientUnits="userSpaceOnUse"
                        gradientTransform="translate(517.386 75.234) rotate(128.915) scale(699.078 699.914)">
            <stop stop-color="#06F775"/>
            <stop offset="1" stop-color="#009947"/>
        </radialGradient>
        <radialGradient id="paint2_radial_1876_3799" cx="0" cy="0" r="1" gradientUnits="userSpaceOnUse"
                        gradientTransform="translate(519.545 280.735) rotate(129.437) scale(365.937 365.695)">
            <stop stop-color="#06F775"/>
            <stop offset="1" stop-color="#009947"/>
        </radialGradient>
        <radialGradient id="paint3_radial_1876_3799" cx="0" cy="0" r="1" gradientUnits="userSpaceOnUse"
                        gradientTransform="translate(393.737 146.612) rotate(128.702) scale(334.557 334.411)">
            <stop stop-color="#06F775"/>
            <stop offset="1" stop-color="#009947"/>
        </radialGradient>
    </defs>
</svg>
